

<svg xmlns="http://www.w3.org/2000/svg" width="16" height="16" fill="currentColor" class="bi bi-house-heart-fill" viewBox="0 0 16 16">
  <!-- Define your paths with placeholders -->
  <path d="M7.293 1.5a1 1 0 0 1 1.414 0L11 3.793V2.5a.5.5 0 0 1 .5-.5h1a.5.5 0 0 1 .5.5v3.293l2.354 2.353a.5.5 0 0 1-.708.707L8 2.207 1.354 8.853a.5.5 0 1 1-.708-.707z" fill="red"/>
  <path d="m14 9.293-6-6-6 6V13.5A1.5 1.5 0 0 0 3.5 15h9a1.5 1.5 0 0 0 1.5-1.5zm-6-.811c1.664-1.673 5.825 1.254 0 5.018-5.825-3.764-1.664-6.691 0-5.018" fill="blue"/>
  <path id="heart-path" d="M8 7.982 C9.664 6.309 13.825 9.236 8 13 2.175 9.236 6.336 6.309 8 7.982" fill="pink"/>

  <!-- Embed JavaScript to modify paths -->
  <script type="text/ecmascript">
    <![CDATA[
      // Function to update path with dynamic y offset
      function updatePath(yOffset) {
        var pathElement = document.getElementById('heart-path');
        var pathData = `M8 ${7.982 + yOffset} C9.664 ${6.309 + yOffset} 13.825 ${9.236 + yOffset} 8 ${13 + yOffset} 2.175 ${9.236 + yOffset} 6.336 ${6.309 + yOffset} 8 ${7.982 + yOffset}`;
        pathElement.setAttribute('d', pathData);
      }

      // Example usage: call updatePath with yOffset
      updatePath(0.5); // Shift down by 5 units
    ]]>
  </script>
</svg>
